<mxfile host="app.diagrams.net" modified="2022-08-28T05:49:06.275Z" agent="5.0 (Macintosh; Intel Mac OS X 10_15_7) AppleWebKit/537.36 (KHTML, like Gecko) Chrome/104.0.0.0 Safari/537.36" etag="PFDBOzAkaA9n7BQAzMiW" version="20.2.5" type="github">
  <diagram id="3228e29e-7158-1315-38df-8450db1d8a1d" name="Page-1">
    <mxGraphModel dx="944" dy="448" grid="0" gridSize="10" guides="1" tooltips="1" connect="1" arrows="1" fold="1" page="1" pageScale="1" pageWidth="600" pageHeight="250" background="#EFF1F3" math="0" shadow="0">
      <root>
        <mxCell id="0" />
        <mxCell id="1" parent="0" />
        <mxCell id="u2PcJNjvmNns-S4P3fWU-13" value="" style="rounded=1;whiteSpace=wrap;html=1;fontColor=#535E80;fillColor=none;dashed=1;strokeWidth=2;strokeColor=#4A919B;" parent="1" vertex="1">
          <mxGeometry x="222" y="283" width="136" height="181" as="geometry" />
        </mxCell>
        <mxCell id="u2PcJNjvmNns-S4P3fWU-4" value="" style="shape=flexArrow;endArrow=classic;html=1;rounded=0;fontColor=#FFFFFF;fillColor=#4A919B;strokeColor=#4A919B;startArrow=block;width=15.949367088607595;startSize=6.027848101265822;" parent="1" edge="1">
          <mxGeometry width="50" height="50" relative="1" as="geometry">
            <mxPoint x="146" y="328" as="sourcePoint" />
            <mxPoint x="206" y="328" as="targetPoint" />
          </mxGeometry>
        </mxCell>
        <mxCell id="brVgungklM-mBZ3Xc4Km-5" value="" style="shape=flexArrow;endArrow=classic;html=1;rounded=0;fontColor=#FFFFFF;fillColor=#4A919B;strokeColor=#4A919B;startArrow=block;width=15.949367088607595;startSize=6.027848101265822;" parent="1" edge="1">
          <mxGeometry width="50" height="50" relative="1" as="geometry">
            <mxPoint x="372" y="327.29" as="sourcePoint" />
            <mxPoint x="433" y="327.29" as="targetPoint" />
          </mxGeometry>
        </mxCell>
        <mxCell id="brVgungklM-mBZ3Xc4Km-9" value="" style="shape=flexArrow;endArrow=classic;html=1;rounded=0;fontColor=#FFFFFF;fillColor=#4A919B;strokeColor=#4A919B;startArrow=block;width=15.949367088607595;startSize=6.027848101265822;" parent="1" edge="1">
          <mxGeometry width="50" height="50" relative="1" as="geometry">
            <mxPoint x="146" y="427" as="sourcePoint" />
            <mxPoint x="206" y="427" as="targetPoint" />
          </mxGeometry>
        </mxCell>
        <mxCell id="brVgungklM-mBZ3Xc4Km-11" value="" style="shape=flexArrow;endArrow=classic;html=1;rounded=0;fontColor=#FFFFFF;fillColor=#4A919B;strokeColor=#4A919B;startArrow=block;width=15.949367088607595;startSize=6.027848101265822;" parent="1" edge="1">
          <mxGeometry width="50" height="50" relative="1" as="geometry">
            <mxPoint x="371.9999999999999" y="426.28999999999996" as="sourcePoint" />
            <mxPoint x="433" y="426.28999999999996" as="targetPoint" />
          </mxGeometry>
        </mxCell>
        <mxCell id="EIRMpiTNnKI3SFwe1vEP-2" value="&lt;font style=&quot;font-size: 22px;&quot;&gt;websocket&lt;/font&gt;" style="rounded=1;whiteSpace=wrap;html=1;strokeWidth=5;fontColor=#FFFFFF;fillColor=#4A919B;strokeColor=#4A919B;" parent="1" vertex="1">
          <mxGeometry x="230.5" y="320" width="117" height="107" as="geometry" />
        </mxCell>
        <mxCell id="EIRMpiTNnKI3SFwe1vEP-3" value="" style="shape=image;verticalLabelPosition=bottom;labelBackgroundColor=default;verticalAlign=top;aspect=fixed;imageAspect=0;image=data:image/svg+xml,PHN2ZyB4bWxuczp4bGluaz0iaHR0cDovL3d3dy53My5vcmcvMTk5OS94bGluayIgeG1sbnM9Imh0dHA6Ly93d3cudzMub3JnLzIwMDAvc3ZnIiBoZWlnaHQ9IjIwMCIgd2lkdGg9IjIyOC4xMjUiIHZlcnNpb249IjEuMSIgdmlld0JveD0iMCAwIDExNjggMTAyNCIgY2xhc3M9Imljb24iPjxwYXRoIGZpbGw9IiM0QTkxOUIiIGQ9Ik0zMTMuMjE0IDQwNy40MTdjMS4zMS0xMjEuMjgzIDc5LjA0OS0xOTkuNjYzIDE5OS43NjgtMjAwLjcwMyAxMDAuOTk2LTAuODcgMjAyLjAzNy0xLjcxNSAzMDIuOTc0IDAuNjA1IDM2LjE2NSAwLjgzNSA0My4xNzQtMTIuNzIzIDM4LjU2LTQ0LjQ4NEM4NDIuMTAyIDc3LjEwMiA3NjkuNDAyIDEzLjM2NiA2NzYuNjYgMTIuNzA2Yy0xNjQuMTI4LTEuMTgtMzI4LjI1LTEuMTM1LTQ5Mi4zNzgtMC4wOUM3Ni41NTIgMTMuMzExIDQuMDc3IDg0LjI4NiAxLjM3MiAxOTEuNDEyYy0xLjg3IDczLjktMS43OTUgMTQ3LjkxNSAwLjAyIDIyMS44MTUgMi4yMTUgOTAuNDgzIDUyLjc2MyAxNTMuNjY0IDE0MC45NTYgMTczLjQxMSAyNy41OTYgNi4xNzQgMzIuMDAxIDEzLjA3MyAyMS4xMzIgMzguMDQ1LTE5LjgxMiA0NS41MTQtMzYuODYgOTIuMjM3LTU1LjA1NyAxMzguNDUxIDMuNjc0IDIuOTEgNy4zNjQgNS44MjQgMTEuMDMzIDguNzI0IDUxLjY5OC0zMi4xNDEgMTAyLjUyNi02NS44MDYgMTU1LjQ2NC05NS43NzcgMjguNDg2LTE2LjEyMyA0MC4yNS0zNS4xMTUgMzguOTItNjguNTIxQzMxMS4xODQgNTQwLjk0OSAzMTIuNDk5IDQ3NC4xMzggMzEzLjIxNCA0MDcuNDE3TDMxMy4yMTQgNDA3LjQxN3pNMTAwOS45NTQgMjQ0LjAxOWMtMTY3LjcyMi0zLjU0NS0zMzUuNjE0LTMuMzc1LTUwMy4zMzYtMC4wNTUtOTEuNjM3IDEuODEtMTUyLjAxOSA2My40MzYtMTU1LjY0OSAxNTQuNjk5LTMuNTc1IDkwLjA3My0zLjc3IDE4MC41MiAwLjA5NSAyNzAuNTYzIDQuMTE5IDk1Ljc2NyA2OC45ODEgMTUzLjQyOSAxNjYuNjQ3IDE1NC45MDkgNTQuMTEzIDAuODEgMTA4LjM1IDIuMTg1IDE2Mi4zNTMtMC41MSA0MS42NDQtMi4wODUgNzYuMjU1IDkuMDE0IDExMS4wNjUgMzEuODM2IDc5Ljk2NCA1Mi40MjggMTYyLjIyOCAxMDEuMzIxIDI1Ni41MTUgMTU5LjY1My0xNy4wNjgtNDMuMzQ0LTI4LjIwMS03MS40MDUtMzkuMTYtOTkuNTMxLTExLjAzMy0yOC4yOTEtMjEuODk3LTU2LjY1Mi0zMy42ODUtODcuMjAzIDEwLjE3NC0xLjcxIDE2Ljk2OC0zLjQzNSAyMy44MzctMy45MzQgMTEyLjIxLTguMTE5IDE2Ni40MjctNjQuNzE2IDE2Ny41MzctMTc2LjczNiAwLjc4LTc5LjM4NCAxLjQ4NS0xNTguNzk4LTAuMjMtMjM4LjE0N0MxMTYzLjgwOCAzMTAuOTE1IDExMDYuMDg2IDI0Ni4wNDkgMTAwOS45NTQgMjQ0LjAxOUwxMDA5Ljk1NCAyNDQuMDE5eiIvPjwvc3ZnPg==;" parent="1" vertex="1">
          <mxGeometry x="448" y="398.94" width="78.73" height="69.06" as="geometry" />
        </mxCell>
        <mxCell id="EIRMpiTNnKI3SFwe1vEP-4" value="" style="shape=image;verticalLabelPosition=bottom;labelBackgroundColor=default;verticalAlign=top;aspect=fixed;imageAspect=0;image=data:image/svg+xml,PHN2ZyB4bWxuczp4bGluaz0iaHR0cDovL3d3dy53My5vcmcvMTk5OS94bGluayIgeG1sbnM9Imh0dHA6Ly93d3cudzMub3JnLzIwMDAvc3ZnIiBoZWlnaHQ9IjIwMCIgd2lkdGg9IjIwMCIgdmVyc2lvbj0iMS4xIiB2aWV3Qm94PSIwIDAgMTAyNCAxMDI0IiBjbGFzcz0iaWNvbiI+PHBhdGggZmlsbD0iIzRBOTE5QiIgZD0iTTk3MS45ODMgMTAwNi4yODJsLTkxMS42MjIgMC4wMjBjLTIxLjgxNC0wLjAyMC00MS44MDMtMjAuMDY5LTQxLjg1My00MS44NTR2LTI1OC40MjdjMC00MS45NzkgMjEuMDgxLTYzLjk0NiA0My4yMTMtNDIuOWwxMjMuMjg2IDk3LjAzNmMxNi41NjQgMTQuMTgzIDQxLjQ1NiAzMy40NzcgNTUuMzExIDE2LjY1NmwxNDEuMzAxLTE3MS41NjdjMTMuODU3LTE2LjgyIDM4Ljg1MS00MC41NjcgNTUuNTQ4LTI2LjUyN2wxMjEuNTg5IDEwNS44NjJjMTYuNjg5IDE0LjAyMSA1MS4yNDYgMzguNTAzIDY0LjgyNiAyMS40NGwzMDIuNTQtMzY0LjYwN2M0MC44NjQtNDYuNjQ3IDg2LjQzOC0zNS43MDMgODYuNDM4IDIxLjQ0OSAwIDQyLjU5MSAwIDYwMS41ODQgMCA2MDEuNTg0LTAuMDAxIDIxLjc4NS0xOC43NzMgNDEuODU0LTQwLjU3OSA0MS44MzR6TTYxNy4xODYgNTU4LjQ4N2MtMTEuMTk5IDE0LjM0Ny0yNy43MzMgMjMuNTAxLTQ1LjgyIDI1LjQwMi0xOC4xMTggMi4xNDctMzYuMTc1LTMuNjU3LTUwLjA4MS0xNS4zNDdsLTEzNy4xNTItMTE1LjUwOS0xMzcuNzU1IDE4MS44MjdjLTExLjAwNyAxNC40OS0yNy4zOTYgMjMuOTMxLTQ1LjQ2MiAyNi4wODAtMi42MjUgMC4zMDUtNS4yNjMgMC40NjgtNy45IDAuNDY4LTE1LjM1OCAwLTMwLjM1OS01LjMxNS00Mi4zNzctMTUuMTY2bC0xMjAuMjItOTguMzYzYy0yOC42MjItMjMuNDAxLTMyLjg0Mi02NS42MDItOS40MzMtOTQuMjI1IDIzLjM5Mi0yOC42NjEgNjUuNTgzLTMyLjg1MiA5NC4xOTQtOS40MzNsNjYuNDYgNTQuMzYzIDEzOC4zMzgtMTgyLjYyNWMxMS4wOTQtMTQuNjU1IDI3LjY5Mi0yNC4wNzcgNDUuOTIzLTI2LjExOCAxOC4zNjMtMi4wMDIgMzYuNTIyIDMuNTM1IDUwLjU2MiAxNS4zMDdsMTM3Ljg5OSAxMTYuMTU2IDE3OC4xNy0yMjMuNDc4LTQ5LjY1MS00MS4yNDRjLTM1LjIzMS0yOS4yNTUtMjcuNDA2LTYwLjk1MyAxNy4zOTItNzAuNDI1bDI1OC4yMi01NC42MThjNDQuNzg5LTkuNDcyIDU4LjY0NCAxMi41MDcgMzAuNzg5IDQ4Ljg2NGwtMzcyLjA5NSA0NzguMDc5eiIvPjwvc3ZnPg==;" parent="1" vertex="1">
          <mxGeometry x="55" y="387" width="81" height="81" as="geometry" />
        </mxCell>
        <mxCell id="EIRMpiTNnKI3SFwe1vEP-5" value="" style="shape=image;verticalLabelPosition=bottom;labelBackgroundColor=default;verticalAlign=top;aspect=fixed;imageAspect=0;image=data:image/svg+xml,PHN2ZyB4bWxuczp4bGluaz0iaHR0cDovL3d3dy53My5vcmcvMTk5OS94bGluayIgeG1sbnM9Imh0dHA6Ly93d3cudzMub3JnLzIwMDAvc3ZnIiBoZWlnaHQ9IjIwMCIgd2lkdGg9IjIwMCIgdmVyc2lvbj0iMS4xIiB2aWV3Qm94PSIwIDAgMTAyNCAxMDI0IiBjbGFzcz0iaWNvbiI+PHBhdGggZmlsbD0iIzRBOTE5QiIgZD0iTTU3NiA2MzEuNDY2NjY3VjcyNS4zMzMzMzNoMTcwLjY2NjY2N2M1OS43MzMzMzMtOC41MzMzMzMgMTA2LjY2NjY2Ny02NCAxMDYuNjY2NjY2LTEyOCAwLTcyLjUzMzMzMy01NS40NjY2NjctMTI4LTEyOC0xMjgtMTcuMDY2NjY3IDAtMjkuODY2NjY3IDQuMjY2NjY3LTQyLjY2NjY2NiA4LjUzMzMzNFY0NjkuMzMzMzMzYzAtOTMuODY2NjY3LTc2LjgtMTcwLjY2NjY2Ny0xNzAuNjY2NjY3LTE3MC42NjY2NjZzLTE3MC42NjY2NjcgNzYuOC0xNzAuNjY2NjY3IDE3MC42NjY2NjZjMCAxNy4wNjY2NjcgNC4yNjY2NjcgMjkuODY2NjY3IDQuMjY2NjY3IDQ2LjkzMzMzNC04LjUzMzMzMy00LjI2NjY2Ny0xNy4wNjY2NjctNC4yNjY2NjctMjUuNi00LjI2NjY2N0MyNjAuMjY2NjY3IDUxMiAyMTMuMzMzMzMzIDU1OC45MzMzMzMgMjEzLjMzMzMzMyA2MTguNjY2NjY3UzI2MC4yNjY2NjcgNzI1LjMzMzMzMyAzMjAgNzI1LjMzMzMzM2gxNzAuNjY2NjY3di05My44NjY2NjZsLTQ2LjkzMzMzNCA0Ni45MzMzMzNMMzg0IDYxOC42NjY2NjdsMTQ5LjMzMzMzMy0xNDkuMzMzMzM0IDE0OS4zMzMzMzQgMTQ5LjMzMzMzNC01OS43MzMzMzQgNTkuNzMzMzMzLTQ2LjkzMzMzMy00Ni45MzMzMzN6IG0wIDkzLjg2NjY2NnY4NS4zMzMzMzRoLTg1LjMzMzMzM3YtODUuMzMzMzM0aC00Mi42NjY2Njd2ODUuMzMzMzM0aC0xMjhDMjEzLjMzMzMzMyA4MTAuNjY2NjY3IDEyOCA3MjUuMzMzMzMzIDEyOCA2MTguNjY2NjY3YzAtODUuMzMzMzMzIDU1LjQ2NjY2Ny0xNTcuODY2NjY3IDEyOC0xODMuNDY2NjY3QzI3My4wNjY2NjcgMzExLjQ2NjY2NyAzNzkuNzMzMzMzIDIxMy4zMzMzMzMgNTEyIDIxMy4zMzMzMzNjMTEwLjkzMzMzMyAwIDIwOS4wNjY2NjcgNzIuNTMzMzMzIDI0My4yIDE3MC42NjY2NjcgMTAyLjQgMTIuOCAxODMuNDY2NjY3IDEwMi40IDE4My40NjY2NjcgMjEzLjMzMzMzM3MtODUuMzMzMzMzIDIwMC41MzMzMzMtMTkyIDIxMy4zMzMzMzRoLTEyOHYtODUuMzMzMzM0aC00Mi42NjY2Njd6Ii8+PC9zdmc+;" parent="1" vertex="1">
          <mxGeometry x="482.41" y="309.5" width="77.5" height="77.5" as="geometry" />
        </mxCell>
        <mxCell id="EIRMpiTNnKI3SFwe1vEP-6" value="" style="shape=image;verticalLabelPosition=bottom;labelBackgroundColor=default;verticalAlign=top;aspect=fixed;imageAspect=0;image=data:image/svg+xml,PHN2ZyB4bWxuczp4bGluaz0iaHR0cDovL3d3dy53My5vcmcvMTk5OS94bGluayIgeG1sbnM9Imh0dHA6Ly93d3cudzMub3JnLzIwMDAvc3ZnIiBoZWlnaHQ9IjIwMCIgd2lkdGg9IjIwMCIgdmVyc2lvbj0iMS4xIiB2aWV3Qm94PSIwIDAgMTAyNCAxMDI0IiBjbGFzcz0iaWNvbiI+PHBhdGggZmlsbD0iIzRBOTE5QiIgZD0iTTI4OCAzMjBhMzIgMzIgMCAxIDEgMC02NGg0NDhhMzIgMzIgMCAwIDEgMCA2NEgyODh6TTI4OCA1NDRhMzIgMzIgMCAwIDEgMC02NGg0NDhhMzIgMzIgMCAwIDEgMCA2NEgyODh6TTI4OCA3NjhhMzIgMzIgMCAwIDEgMC02NGgxMjhhMzIgMzIgMCAwIDEgMCA2NEgyODh6Ii8+PHBhdGggZmlsbD0iIzRBOTE5QiIgZD0iTTgwNy45NjggODAyLjI0YTMyIDMyIDAgMCAxIDQxLjk4NCA0OC4zMmwtMTUzLjg1NiAxMzMuNmEzMiAzMiAwIDAgMS0yMC45OTIgNy44NEgxOTUuMDRDMTQwLjE2IDk5MiA5NiA5NDYuNjI0IDk2IDg5MS4wNzJWMTMyLjkyOEM5NiA3Ny4zNzYgMTQwLjE2IDMyIDE5NS4wNCAzMmg2MzMuOTJDODgzLjg0IDMyIDkyOCA3Ny4zNzYgOTI4IDEzMi45Mjh2NTY0LjMyYTMyIDMyIDAgMSAxLTY0IDBWMTMyLjkyOEM4NjQgMTEyLjMyIDg0OC4wOTYgOTYgODI4Ljk2IDk2SDE5NS4wNEMxNzUuOTA0IDk2IDE2MCAxMTIuMzIgMTYwIDEzMi45Mjh2NzU4LjE0NEMxNjAgOTExLjY4IDE3NS45MDQgOTI4IDE5NS4wNCA5MjhoNDY4LjA5NmwxNDQuODMyLTEyNS43NnoiLz48cGF0aCBmaWxsPSIjNEE5MTlCIiBkPSJNNzA0IDk1OS4xMzZhMzIgMzIgMCAxIDEtNjQgMHYtMTg2LjI0QzY0MCA3MTcuNDA4IDY4NC4xNiA2NzIgNzM5LjA0IDY3MmgxNTcuNjMyYTMyIDMyIDAgMCAxIDAgNjRoLTE1Ny42MzJjLTE5LjEzNiAwLTM1LjA0IDE2LjMyLTM1LjA0IDM2LjkyOHYxODYuMjR6Ii8+PC9zdmc+;" parent="1" vertex="1">
          <mxGeometry x="439.41" y="290" width="71.5" height="71.5" as="geometry" />
        </mxCell>
        <mxCell id="EIRMpiTNnKI3SFwe1vEP-7" value="" style="shape=image;verticalLabelPosition=bottom;labelBackgroundColor=default;verticalAlign=top;aspect=fixed;imageAspect=0;image=data:image/svg+xml,PHN2ZyB4bWxuczp4bGluaz0iaHR0cDovL3d3dy53My5vcmcvMTk5OS94bGluayIgeG1sbnM9Imh0dHA6Ly93d3cudzMub3JnLzIwMDAvc3ZnIiBoZWlnaHQ9IjIwMCIgd2lkdGg9IjIwMCIgdmVyc2lvbj0iMS4xIiB2aWV3Qm94PSIwIDAgMTAyNCAxMDI0IiBjbGFzcz0iaWNvbiI+PHBhdGggZmlsbD0iIzRBOTE5QiIgZD0iTTgxMi4yMjE2NjYgNTk2LjYyMzMyOWMzOS4yMzE1MTMgMCA3MS4xNDg0MzMtMzEuOTE3OTQ0IDcxLjE0ODQzMy03MS4xNTE1MDMgMC0zOS4yMzA0OS0zMS45MTY5Mi03MS4xNDc0MS03MS4xNDg0MzMtNzEuMTQ3NDEtMzkuMjMzNTYgMC03MS4xNTE1MDMgMzEuOTE2OTItNzEuMTUxNTAzIDcxLjE0NzQxQzc0MS4wNjkxMzkgNTY0LjcwNTM4NiA3NzIuOTg4MTA2IDU5Ni42MjMzMjkgODEyLjIyMTY2NiA1OTYuNjIzMzI5ek04MTIuMjIxNjY2IDQ5MS4xNjM0MzljMTguOTE3ODYyIDAgMzQuMzA5NDEgMTUuMzkxNTQ5IDM0LjMwOTQxIDM0LjMwODM4NyAwIDE4LjkxOTkwOC0xNS4zOTE1NDkgMzQuMzEyNDgtMzQuMzA5NDEgMzQuMzEyNDgtMTguOTE5OTA4IDAtMzQuMzEyNDgtMTUuMzkyNTcyLTM0LjMxMjQ4LTM0LjMxMjQ4Qzc3Ny45MDgxNjIgNTA2LjU1Mzk2NCA3OTMuMzAwNzM0IDQ5MS4xNjM0MzkgODEyLjIyMTY2NiA0OTEuMTYzNDM5eiIvPjxwYXRoIGZpbGw9IiM0QTkxOUIiIGQ9Ik02NjQuODM3OTQ0IDQ2Ny41NjgwNDVjMzkuMjMxNTEzIDAgNzEuMTQ3NDEtMzEuOTE3OTQ0IDcxLjE0NzQxLTcxLjE1MTUwMyAwLTM5LjIzMDQ5LTMxLjkxNTg5Ny03MS4xNDc0MS03MS4xNDc0MS03MS4xNDc0MXMtNzEuMTQ3NDEgMzEuOTE2OTItNzEuMTQ3NDEgNzEuMTQ3NDFDNTkzLjY5MDUzNCA0MzUuNjQ5MDc4IDYyNS42MDY0MzEgNDY3LjU2ODA0NSA2NjQuODM3OTQ0IDQ2Ny41NjgwNDV6TTY2NC44Mzc5NDQgMzYyLjEwNzEzMWMxOC45MTc4NjIgMCAzNC4zMDgzODcgMTUuMzkxNTQ5IDM0LjMwODM4NyAzNC4zMDgzODcgMCAxOC45MTk5MDgtMTUuMzkwNTI1IDM0LjMxMjQ4LTM0LjMwODM4NyAzNC4zMTI0OHMtMzQuMzA4Mzg3LTE1LjM5MjU3Mi0zNC4zMDgzODctMzQuMzEyNDhDNjMwLjUyOTU1NyAzNzcuNDk4NjggNjQ1LjkyMDA4MiAzNjIuMTA3MTMxIDY2NC44Mzc5NDQgMzYyLjEwNzEzMXoiLz48cGF0aCBmaWxsPSIjNEE5MTlCIiBkPSJNOTgxLjM0NDUwNCA0OTQuNjQ1NzVsMC05NS4xNjg1YzAtMzguMTgxNjAxLTYuNDc4NTUyLTcxLjkxNzk2LTE5LjI1NDUyOS0xMDAuMjcyNzUxLTExLjQ4NDU2NS0yNS40ODY0NjQtMjguMDg1NjYyLTQ2LjgxMjE2NS00OS4zNDM4MjUtNjMuMzgyNTYzLTQ0LjEyODAzMy0zNC4zOTk0NjEtOTYuNDY0MDA1LTM5LjUzNTQzNS0xMjMuNzMzMDY5LTM5LjUzNTQzNUw1MzAuNjAyNjgzIDE5Ni4yODY1MDJsMC00Ny4yOTEwNzNjMC0xMC4xNzI2ODctOC4yNDY4MjUtMTguNDE5NTEyLTE4LjQxOTUxMi0xOC40MTk1MTJzLTE4LjQxOTUxMiA4LjI0NjgyNS0xOC40MTk1MTIgMTguNDE5NTEybDAgNDcuMjkxMDczTDIyMC45NDkyMDQgMTk2LjI4NjUwMmMtMjcuMjY5MDY0IDAtNzkuNjA1MDM2IDUuMTM2OTk3LTEyMy43MzMwNjkgMzkuNTM1NDM1LTIxLjI1NzE0IDE2LjU3MDM5Ny0zNy44NTkyNTkgMzcuODk2MDk4LTQ5LjM0MjgwMiA2My4zODI1NjMtMTIuNzc3MDAxIDI4LjM1NDc5MS0xOS4yNTQ1MjkgNjIuMDkxMTUtMTkuMjU0NTI5IDEwMC4yNzI3NTFsMCA5NS4xNTgyNjctMC4wMTUzNSAyNy43MzM2NDUgMCAxNTEuNzk2MjE4YzAgNjUuNDExNzc5IDUzLjIxODA2MiAxMTguNjI4ODE4IDExOC42MzE4ODggMTE4LjYyODgxOGw0Ny45NTUxOTggMGMzLjI0MDgxMSAwLjE1NjU2NiAxNy4xMjYwNTMgMC41OTY1ODggMzMuNzM1MzM1LTIuMTUzMDM2IDI2LjQ3OTA3MS00LjM3OTc1MSA0Ni43OTQ3NjktMTQuMzQ5ODIzIDYwLjM4MjIyOS0yOS42MzU5NzEgMTQuNTEyNTI5LTE2LjMyNjg1IDIyLjk1NTgyOC0yOC41MzQ4OTMgMjQuNzEzODY4LTMxLjE0MDIzMSAxNC43NTcwOTktMTkuNzI1MjUgMzYuNzcyNTA4LTMxLjcxOTQyMiA2NS40NDQ1MjUtMzUuNjU1MDU4IDUuODUzMzExLTAuODAzMjk1IDExLjk2NTUxOS0xLjMzNjQzOCAxOC42NzQzMTUtMS42MjYwMzRsNzAuMjk2MDE5IDAgMC4zMTYyMDIgMC4wMDIwNDcgMC4zNzQ1My0wLjAxNTM1YzAuNDIzNjQ5LTAuMDA4MTg2IDQyLjE1NjEyMi0xLjE2MDQyOSA2MS4xNDU2MTUgMjIuNTc3MjA1IDYuMzUzNzA4IDcuOTQyOTAzIDE3Ljk0NDY5NyA5LjIzNDMxNSAyNS44ODk2NDcgMi44Nzc1MzcgNy45NDM5MjYtNi4zNTQ3MzEgOS4yMzEyNDUtMTcuOTQ1NzIxIDIuODc3NTM3LTI1Ljg4OTY0Ny0yOS42NDEwODctMzcuMDUyODk0LTg0Ljg3NDAzOS0zNi41NjE3MDctOTAuODk2MTk2LTM2LjM5MDgxNWwtNzAuMzk1MjggMC0wLjc2NzQ4IDAuMDE2MzczYy04LjAzMTkzIDAuMzM0NjIxLTE1LjQwMDc1OCAwLjk3NDE4OC0yMi41MjYwMzkgMS45NTI0NjgtMzkuMDIzNzgyIDUuMzU0OTYxLTY5LjM5ODU4IDIyLjM2NDM1Ny05MC4yODIyMTMgNTAuNTU0Mzk2bC0wLjU2NzkzNSAwLjgxMTQ4MmMtMC4wNzU3MjUgMC4xMTM1ODctNy42ODgwOTkgMTEuNTM5ODI0LTIxLjgzMDE5MSAyNy40NTAxODktMTYuMTQyNjU1IDE4LjE1OTU5Mi01Mi4zNjk3NDEgMjAuMTk5MDQxLTY0LjkyNTcwOCAxOS40NjIyNjFsLTAuNTg3Mzc4LTAuMDM3ODYyLTQ5LjAyNjYgMGMtNDUuMTAxMTk3IDAtODEuNzkyODY0LTM2LjY4OTYyLTgxLjc5Mjg2NC04MS43ODk3OTVMNjUuNDQyNDc4IDUyMi4zNzkzOTVsMC4wMTUzNS0yNy43MzM2NDUgMC05NS4xNjg1YzAtNjEuMTcyMjIxIDE4LjMwNTkyNS0xMDYuNDU4NjM3IDU0LjQwNzE0NC0xMzQuNjAxNjA0IDM1LjQzOTE0LTI3LjYyNjE5NyA3OC41NDM4NjctMzEuNzUxMTQ1IDEwMS4wODQyMzMtMzEuNzUxMTQ1bDU2OC4wNjI4NTMgMGMyMi41NDAzNjYgMCA2NS42NDUwOTMgNC4xMjQ5NDcgMTAxLjA4NDIzMyAzMS43NTExNDUgMzYuMTAyMjQzIDI4LjE0Mjk2NyA1NC40MDgxNjcgNzMuNDI5MzgzIDU0LjQwODE2NyAxMzQuNjAxNjA0bDAgOTUuMTc4NzMzIDAuMDE1MzUgMjcuNzEzMTc4IDAgMTUxLjc5NjIxOGMwIDQ1LjA5OTE1MS0zNi42OTE2NjcgODEuNzg5Nzk1LTgxLjc5Mjg2NCA4MS43ODk3OTVsLTQ4LjQzOTIyMiAwLTEuMTc0NzU2IDAuMDM3ODYyYy0xMS42ODcxOCAwLjc1MDA4My00OC43MTM0NjgtMS4yMjI4NTEtNjQuOTI0Njg1LTE5LjQ2MjI2MS0xNC4xNDMxMTUtMTUuOTEwMzY1LTIxLjc1NTQ5LTI3LjMzNjYwMi0yMS44MTY4ODgtMjcuNDI5NzIzbC0wLjU4MTIzOC0wLjgzMTk0OGMtMjAuODgzNjMzLTI4LjE5MDAzOS01MS4yNTk0NTQtNDUuMTk5NDM1LTkwLjI3ODExOS01MC41NTMzNzMtNS42MTM4NTgtMC43NzI1OTYtMTkuMjkwMzQ1LTEuMTk3MjY4LTM2LjU4NjI2Ny0xLjY3MzEwNi00LjE0MjM0My0wLjExMzU4Ny03LjUzMzU4LTAuMjA1Njg1LTkuMzI2NDEzLTAuMjgwMzg2LTEwLjE2MTQzMS0wLjQyMzY0OS0xOC43NDY5NyA3LjQ3MjE4Mi0xOS4xNzA2MTggMTcuNjM1NjU5czcuNDcyMTgyIDE4Ljc0Njk3IDE3LjYzNTY1OSAxOS4xNzA2MThjMS45NzM5NTggMC4wODE4NjQgNS40NDkxMDYgMC4xNzgwNTUgOS44NDkzMjIgMC4yOTg4MDUgOC41MzIzMjcgMC4yMzQzMzcgMjguNTE0NDI3IDAuNzg0ODc2IDMyLjU4NjE2MyAxLjM0MzYwMSAyOC42NjY5IDMuOTM0NjEyIDUwLjY4MjMwOSAxNS45Mjg3ODQgNjUuNDQwNDMxIDM1LjY1MzAxMSAxLjc1ODA0IDIuNjA0MzE0IDEwLjIwMDMxNiAxNC44MTMzODEgMjQuNzE0ODkxIDMxLjE0MjI3OCAxMy41ODY0MzYgMTUuMjg0MTAxIDMzLjkwMjEzNCAyNS4yNTUxOTcgNjAuMzgxMjA2IDI5LjYzNDk0OCAxMS40ODA0NzIgMS44OTkyNTYgMjEuNjU4Mjc2IDIuMjc1ODMzIDI3LjkxOTg4NiAyLjI3NTgzMyAyLjc5NzcxOSAwIDQuODE0NjU2LTAuMDc0NzAxIDUuODE1NDQ5LTAuMTIyNzk3bDQ3Ljk1NjIyMiAwYzY1LjQxMzgyNSAwIDExOC42MzE4ODgtNTMuMjE3MDM5IDExOC42MzE4ODgtMTE4LjYyODgxOEw5ODEuMzU5ODU0IDUyMi4zNTg5MjkgOTgxLjM0NDUwNCA0OTQuNjQ1NzV6Ii8+PHBhdGggZmlsbD0iIzRBOTE5QiIgZD0iTTI2OC4zNjAwMDQgNTg1LjU5MzExMmMwLjAxMzMwMyAwIDAuMDI1NTgzIDAgMC4wMzk5MDkgMCAxMC4xNTMyNDQgMCAxOC4zOTY5OTktOC4yMjEyNDIgMTguNDE4NDg4LTE4LjM4MDYyNmwwLjIyMDAxMS0xMDUuMzA0MzQ4IDEwNS4wNjU5MTctMC4yMzg0M2MxMC4xNzI2ODctMC4wMjI1MTMgMTguNDAwMDY5LTguMjg4NzggMTguMzc3NTU2LTE4LjQ2MTQ2Ny0wLjAyMjUxMy0xMC4xNTkzODQtOC4yNjQyMjEtMTguMzc3NTU2LTE4LjQxODQ4OC0xOC4zNzc1NTYtMC4wMTQzMjYgMC0wLjAyODY1MyAwLTAuMDQyOTc5IDBsLTEwNC45MDUyNTggMC4yMzg0MyAwLjIyMDAxMS0xMDUuMTQ2NzU4YzAuMDIxNDg5LTEwLjE3MjY4Ny04LjIwNzkzOS0xOC40MzY5MDgtMTguMzgwNjI2LTE4LjQ1ODM5Ny0wLjAxMzMwMyAwLTAuMDI1NTgzIDAtMC4wMzk5MDkgMC0xMC4xNTQyNjcgMC0xOC4zOTY5OTkgOC4yMjIyNjUtMTguNDE4NDg4IDE4LjM4MDYyNmwtMC4yMjAwMTEgMTA1LjMwNzQxOC0xMDUuMDY1OTE3IDAuMjM4NDNjLTEwLjE3MjY4NyAwLjAyMjUxMy0xOC40MDAwNjkgOC4yODg3OC0xOC4zNzc1NTYgMTguNDYxNDY3IDAuMDIyNTEzIDEwLjE1OTM4NCA4LjI2NDIyMSAxOC4zNzc1NTYgMTguNDE4NDg4IDE4LjM3NzU1NiAwLjAxMzMwMyAwIDAuMDI4NjUzIDAgMC4wNDI5NzkgMGwxMDQuOTA1MjU4LTAuMjM4NDMtMC4yMjAwMTEgMTA1LjE0MjY2NUMyNDkuOTU3ODg5IDU3Ny4zMDc0MDIgMjU4LjE4NzMxNyA1ODUuNTcyNjQ2IDI2OC4zNjAwMDQgNTg1LjU5MzExMnoiLz48L3N2Zz4=;" parent="1" vertex="1">
          <mxGeometry x="49" y="283" width="87" height="87" as="geometry" />
        </mxCell>
      </root>
    </mxGraphModel>
  </diagram>
</mxfile>
